<svg xmlns="http://www.w3.org/2000/svg" xmlns:xlink="http://www.w3.org/1999/xlink" preserveAspectRatio="xMidYMid" width="26" height="26" viewBox="0 0 26 26">
  <defs>
    <style>
      .cls-1 {
        fill: #16111b;
        fill-rule: evenodd;
      }
    </style>
  </defs>
  <path d="M17.875,26.000 L8.125,26.000 C3.638,26.000 -0.000,22.362 -0.000,17.875 L-0.000,8.125 C-0.000,3.638 3.638,-0.000 8.125,-0.000 L17.875,-0.000 C22.362,-0.000 26.000,3.638 26.000,8.125 L26.000,17.875 C26.000,22.362 22.362,26.000 17.875,26.000 ZM23.562,8.125 C23.562,4.989 21.011,2.437 17.875,2.437 L8.125,2.437 C4.989,2.437 2.437,4.989 2.437,8.125 L2.437,17.875 C2.437,21.011 4.989,23.562 8.125,23.562 L17.875,23.562 C21.011,23.562 23.562,21.011 23.562,17.875 L23.562,8.125 ZM19.987,6.879 C19.509,6.879 19.121,6.491 19.121,6.012 C19.121,5.534 19.509,5.146 19.987,5.146 C20.466,5.146 20.854,5.534 20.854,6.012 C20.854,6.491 20.466,6.879 19.987,6.879 ZM13.000,19.500 C9.410,19.500 6.500,16.590 6.500,13.000 C6.500,9.410 9.410,6.500 13.000,6.500 C16.590,6.500 19.500,9.410 19.500,13.000 C19.500,16.590 16.590,19.500 13.000,19.500 ZM13.000,8.937 C10.761,8.937 8.937,10.759 8.937,13.000 C8.937,15.239 10.761,17.062 13.000,17.062 C15.239,17.062 17.062,15.239 17.062,13.000 C17.062,10.759 15.239,8.937 13.000,8.937 Z" class="cls-1"/>
</svg>
