<svg xmlns="http://www.w3.org/2000/svg" xmlns:xlink="http://www.w3.org/1999/xlink" preserveAspectRatio="xMidYMid" width="28" height="16" viewBox="0 0 28 16">
  <defs>
    <style>
      .cls-1 {
        fill: #841eb6;
        fill-rule: evenodd;
      }
    </style>
  </defs>
  <path d="M24.098,10.174 C25.027,11.090 26.008,11.951 26.841,12.959 C27.209,13.407 27.557,13.869 27.824,14.389 C28.201,15.128 27.859,15.941 27.203,15.985 L23.124,15.984 C22.072,16.072 21.232,15.644 20.527,14.918 C19.962,14.337 19.439,13.719 18.896,13.118 C18.673,12.873 18.440,12.642 18.162,12.459 C17.605,12.094 17.121,12.206 16.803,12.792 C16.479,13.389 16.406,14.049 16.374,14.714 C16.330,15.684 16.040,15.939 15.075,15.984 C13.013,16.082 11.056,15.767 9.238,14.716 C7.635,13.790 6.392,12.483 5.310,11.003 C3.204,8.121 1.591,4.955 0.141,1.700 C-0.185,0.966 0.054,0.572 0.855,0.558 C2.186,0.532 3.516,0.534 4.849,0.557 C5.390,0.565 5.748,0.878 5.957,1.394 C6.676,3.181 7.557,4.882 8.663,6.459 C8.958,6.878 9.258,7.298 9.686,7.593 C10.159,7.921 10.519,7.812 10.741,7.280 C10.883,6.943 10.945,6.579 10.976,6.218 C11.082,4.975 11.096,3.734 10.911,2.495 C10.797,1.721 10.366,1.221 9.602,1.075 C9.212,1.000 9.270,0.853 9.459,0.629 C9.787,0.241 10.095,-0.000 10.710,-0.000 L15.320,-0.000 C16.046,0.145 16.207,0.474 16.306,1.211 L16.310,6.382 C16.302,6.668 16.451,7.515 16.961,7.704 C17.368,7.838 17.637,7.509 17.881,7.248 C18.985,6.065 19.773,4.667 20.477,3.219 C20.789,2.583 21.058,1.922 21.318,1.261 C21.511,0.771 21.813,0.530 22.360,0.541 L26.797,0.545 C26.929,0.545 27.062,0.547 27.189,0.569 C27.937,0.697 28.142,1.022 27.911,1.759 C27.547,2.916 26.839,3.880 26.147,4.848 C25.407,5.882 24.615,6.881 23.882,7.921 C23.207,8.870 23.261,9.349 24.098,10.174 L24.098,10.174 Z" class="cls-1"/>
</svg>
