<svg xmlns="http://www.w3.org/2000/svg" xmlns:xlink="http://www.w3.org/1999/xlink" preserveAspectRatio="xMidYMid" width="26" height="26" viewBox="0 0 26 26">
  <defs>
    <style>
      .cls-1 {
        fill: #841eb6;
        fill-rule: evenodd;
      }
    </style>
  </defs>
  <path d="M26.000,12.894 C25.996,22.700 15.430,28.844 6.869,24.217 L0.008,26.007 L1.845,19.330 C0.712,17.374 0.118,15.159 0.118,12.888 C0.123,1.525 13.904,-4.317 22.231,3.738 L22.215,3.780 C24.657,6.214 26.000,9.453 26.000,12.894 ZM20.686,5.284 C18.654,3.252 15.956,2.131 13.082,2.131 C4.622,2.131 -0.509,11.428 3.957,18.542 L4.216,18.948 L3.127,22.898 L7.188,21.842 L7.578,22.074 C14.755,26.295 23.830,21.130 23.836,12.858 C23.836,9.998 22.716,7.299 20.686,5.284 ZM17.207,18.967 C16.649,19.047 15.944,19.082 15.171,18.836 C12.308,17.852 10.742,17.143 7.803,13.294 C6.307,11.185 5.866,9.202 7.614,7.280 C8.016,6.862 8.472,6.853 9.096,6.907 C9.296,6.907 9.563,6.827 9.823,7.460 C10.094,8.095 10.741,9.688 10.822,9.850 C10.902,10.012 10.957,10.191 10.849,10.418 C10.244,11.562 9.581,11.640 9.898,12.189 C10.089,12.514 10.734,13.570 11.696,14.432 C12.930,15.537 13.973,15.879 14.298,16.041 C14.620,16.187 14.808,16.171 14.998,15.960 C15.185,15.745 15.807,15.020 16.020,14.701 C16.328,14.239 16.587,14.316 18.968,15.503 C19.293,15.650 19.505,15.731 19.585,15.878 C19.667,16.024 19.667,16.658 19.390,17.421 C19.121,18.186 17.829,18.868 17.207,18.967 Z" class="cls-1"/>
</svg>
