<svg xmlns="http://www.w3.org/2000/svg" xmlns:xlink="http://www.w3.org/1999/xlink" preserveAspectRatio="xMidYMid" width="31" height="31" viewBox="0 0 31 31">
  <defs>
    <style>
      .cls-1 {
        stroke: #000;
        stroke-width: 1px;
        fill: none;
      }

      .cls-2 {
        fill: #000;
        fill-rule: evenodd;
      }
    </style>
  </defs>
  <g>
    <circle cx="15.5" cy="15.5" r="15" class="cls-1"/>
    <path d="M18.496,8.253 L16.877,8.250 C15.058,8.250 13.883,9.554 13.883,11.572 L13.883,13.104 L12.255,13.104 C12.114,13.104 12.000,13.227 12.000,13.379 L12.000,15.599 C12.000,15.751 12.114,15.874 12.255,15.874 L13.882,15.874 L13.882,21.475 C13.882,21.627 13.996,21.750 14.137,21.750 L16.261,21.750 C16.401,21.750 16.515,21.627 16.515,21.475 L16.515,15.874 L18.418,15.874 C18.559,15.874 18.673,15.751 18.673,15.599 L18.674,13.379 C18.674,13.306 18.647,13.237 18.599,13.185 C18.552,13.133 18.487,13.104 18.419,13.104 L16.515,13.104 L16.515,11.806 C16.515,11.181 16.653,10.865 17.405,10.865 L18.495,10.864 C18.636,10.864 18.750,10.741 18.750,10.589 L18.750,8.528 C18.750,8.376 18.636,8.253 18.496,8.253 Z" class="cls-2"/>
  </g>
</svg>
