<svg xmlns="http://www.w3.org/2000/svg" xmlns:xlink="http://www.w3.org/1999/xlink" preserveAspectRatio="xMidYMid" width="31" height="31" viewBox="0 0 31 31">
  <defs>
    <style>
      .cls-1 {
        stroke: #000;
        stroke-width: 1px;
        fill: none;
      }

      .cls-2 {
        fill: #000;
        fill-rule: evenodd;
      }
    </style>
  </defs>
  <g>
    <circle cx="15.5" cy="15.5" r="15" class="cls-1"/>
    <path d="M17.812,22.500 L12.187,22.500 C9.599,22.500 7.500,20.401 7.500,17.812 L7.500,12.187 C7.500,9.599 9.599,7.500 12.187,7.500 L17.812,7.500 C20.401,7.500 22.500,9.599 22.500,12.187 L22.500,17.812 C22.500,20.401 20.401,22.500 17.812,22.500 ZM21.094,12.187 C21.094,10.378 19.622,8.906 17.812,8.906 L12.187,8.906 C10.378,8.906 8.906,10.378 8.906,12.187 L8.906,17.812 C8.906,19.622 10.378,21.094 12.187,21.094 L17.812,21.094 C19.622,21.094 21.094,19.622 21.094,17.812 L21.094,12.187 ZM19.031,11.468 C18.755,11.468 18.532,11.245 18.532,10.969 C18.532,10.693 18.755,10.469 19.031,10.469 C19.307,10.469 19.531,10.693 19.531,10.969 C19.531,11.245 19.307,11.468 19.031,11.468 ZM15.000,18.750 C12.929,18.750 11.250,17.071 11.250,15.000 C11.250,12.929 12.929,11.250 15.000,11.250 C17.071,11.250 18.750,12.929 18.750,15.000 C18.750,17.071 17.071,18.750 15.000,18.750 ZM15.000,12.656 C13.708,12.656 12.656,13.707 12.656,15.000 C12.656,16.292 13.708,17.344 15.000,17.344 C16.292,17.344 17.344,16.292 17.344,15.000 C17.344,13.707 16.292,12.656 15.000,12.656 Z" class="cls-2"/>
  </g>
</svg>
