<svg xmlns="http://www.w3.org/2000/svg" xmlns:xlink="http://www.w3.org/1999/xlink" preserveAspectRatio="xMidYMid" width="31" height="31" viewBox="0 0 31 31">
  <defs>
    <style>
      .cls-1 {
        stroke: #000;
        stroke-width: 1px;
        fill: none;
      }

      .cls-2 {
        fill: #000;
        fill-rule: evenodd;
      }
    </style>
  </defs>
  <g>
    <circle cx="15.5" cy="15.5" r="15" class="cls-1"/>
    <path d="M7.015,15.114 L10.471,16.373 L11.809,20.573 C11.895,20.843 12.232,20.942 12.455,20.763 L14.382,19.230 C14.584,19.069 14.872,19.061 15.083,19.211 L18.557,21.674 C18.797,21.844 19.136,21.716 19.196,21.434 L21.741,9.479 C21.807,9.171 21.496,8.914 21.196,9.027 L7.011,14.369 C6.661,14.501 6.664,14.985 7.015,15.114 ZM11.594,15.703 L18.348,11.641 C18.470,11.568 18.595,11.728 18.491,11.823 L12.916,16.882 C12.720,17.060 12.593,17.298 12.558,17.557 L12.368,18.931 C12.343,19.114 12.079,19.133 12.027,18.955 L11.296,16.450 C11.213,16.164 11.335,15.859 11.594,15.703 Z" class="cls-2"/>
  </g>
</svg>
