<svg xmlns="http://www.w3.org/2000/svg" xmlns:xlink="http://www.w3.org/1999/xlink" preserveAspectRatio="xMidYMid" width="10" height="8" viewBox="0 0 10 8">
  <defs>
    <style>
      .cls-1 {
        fill: #000;
        fill-rule: evenodd;
      }
    </style>
  </defs>
  <path d="M9.819,1.105 L8.942,0.190 C8.821,0.064 8.675,0.001 8.503,0.001 C8.331,0.001 8.185,0.064 8.064,0.190 L3.832,4.613 L1.936,2.627 C1.815,2.501 1.669,2.438 1.497,2.438 C1.325,2.438 1.178,2.501 1.058,2.627 L0.180,3.542 C0.060,3.668 -0.000,3.821 -0.000,4.000 C-0.000,4.180 0.060,4.333 0.180,4.458 L2.516,6.895 L3.394,7.811 C3.514,7.937 3.660,7.999 3.832,7.999 C4.004,7.999 4.150,7.937 4.271,7.811 L5.148,6.895 L9.819,2.021 C9.940,1.895 10.000,1.743 10.000,1.563 C10.000,1.384 9.940,1.231 9.819,1.105 L9.819,1.105 Z" class="cls-1"/>
</svg>
