<svg xmlns="http://www.w3.org/2000/svg" xmlns:xlink="http://www.w3.org/1999/xlink" preserveAspectRatio="xMidYMid" width="141.16" height="100.06" viewBox="0 0 141.16 100.06">
  <defs>
    <style>
      .cls-1 {
        fill: #000;
        fill-rule: evenodd;
      }
    </style>
  </defs>
  <path d="M138.037,14.289 L138.213,15.443 C136.508,9.385 131.902,4.711 126.050,3.009 L125.926,2.980 C114.923,-0.011 70.641,-0.011 70.641,-0.011 C70.641,-0.011 26.472,-0.070 15.356,2.980 C9.392,4.711 4.781,9.385 3.105,15.319 L3.075,15.443 C-1.036,36.936 -1.065,62.764 3.257,85.777 L3.075,84.611 C4.781,90.670 9.386,95.344 15.238,97.045 L15.362,97.074 C26.354,100.071 70.647,100.071 70.647,100.071 C70.647,100.071 114.811,100.071 125.932,97.074 C131.902,95.344 136.513,90.670 138.190,84.735 L138.219,84.611 C140.090,74.615 141.160,63.111 141.160,51.361 C141.160,50.931 141.160,50.496 141.154,50.059 C141.160,49.659 141.160,49.182 141.160,48.705 C141.160,36.949 140.090,25.445 138.037,14.289 L138.037,14.289 ZM56.514,71.523 L56.514,28.589 L93.367,50.089 L56.514,71.523 Z" class="cls-1"/>
</svg>
