<svg xmlns="http://www.w3.org/2000/svg" xmlns:xlink="http://www.w3.org/1999/xlink" preserveAspectRatio="xMidYMid" width="114" height="100" viewBox="0 0 114 100">
  <defs>
    <style>
      .cls-1 {
        fill: #000;
        fill-rule: evenodd;
      }
    </style>
  </defs>
  <path d="M99.750,100.000 L14.250,100.000 C6.391,100.000 -0.000,93.590 -0.000,85.711 L0.038,28.589 C0.045,20.727 6.426,14.324 14.264,14.310 L24.097,14.292 L31.218,-0.000 L82.775,-0.000 L89.903,14.285 L99.750,14.285 C107.609,14.285 114.000,20.692 114.000,28.571 L114.000,85.715 C114.000,93.593 107.609,100.000 99.750,100.000 ZM56.998,24.999 C41.283,24.999 28.498,37.818 28.498,53.571 C28.498,69.326 41.283,82.143 56.998,82.143 C72.714,82.143 85.499,69.326 85.499,53.571 C85.499,37.818 72.714,24.999 56.998,24.999 ZM46.923,63.673 C41.357,58.093 41.357,49.049 46.923,43.470 C52.487,37.891 61.510,37.891 67.075,43.470 C72.641,49.049 72.641,58.093 67.075,63.673 C61.510,69.252 52.487,69.252 46.923,63.673 Z" class="cls-1"/>
</svg>
