<svg xmlns="http://www.w3.org/2000/svg" xmlns:xlink="http://www.w3.org/1999/xlink" preserveAspectRatio="xMidYMid" width="26.031" height="22" viewBox="0 0 26.031 22">
  <defs>
    <style>
      .cls-1 {
        fill: #fff;
        fill-rule: evenodd;
      }
    </style>
  </defs>
  <path d="M0.462,10.549 L6.467,12.722 L8.791,19.970 C8.939,20.434 9.525,20.606 9.913,20.298 L13.260,17.652 C13.611,17.375 14.111,17.361 14.477,17.619 L20.514,21.869 C20.930,22.162 21.519,21.941 21.623,21.454 L26.045,0.827 C26.159,0.295 25.620,-0.149 25.097,0.047 L0.455,9.265 C-0.153,9.492 -0.148,10.327 0.462,10.549 ZM8.416,11.565 L20.151,4.557 C20.362,4.431 20.579,4.708 20.398,4.871 L10.713,13.600 C10.373,13.908 10.153,14.319 10.091,14.765 L9.761,17.136 C9.717,17.452 9.259,17.484 9.169,17.177 L7.900,12.854 C7.755,12.361 7.966,11.835 8.416,11.565 Z" class="cls-1"/>
</svg>
