<svg xmlns="http://www.w3.org/2000/svg" xmlns:xlink="http://www.w3.org/1999/xlink" preserveAspectRatio="xMidYMid" width="16" height="16" viewBox="0 0 16 16">
  <defs>
    <style>
      .cls-1 {
        fill: #841eb6;
      }

      .cls-2 {
        fill: #faf8fb;
        fill-rule: evenodd;
      }
    </style>
  </defs>
  <g>
    <circle cx="8" cy="8" r="8" class="cls-1"/>
    <path d="M8.969,7.027 L8.967,3.634 C8.966,3.097 8.531,2.662 7.995,2.661 C7.459,2.661 7.025,3.096 7.025,3.633 L7.027,7.026 L3.638,7.024 C3.102,7.024 2.667,7.459 2.668,7.995 C2.668,8.532 3.103,8.968 3.639,8.968 L7.028,8.970 L7.030,12.363 C7.031,12.900 7.466,13.335 8.002,13.336 C8.270,13.336 8.513,13.227 8.688,13.051 C8.864,12.876 8.972,12.633 8.972,12.364 L8.970,8.971 L12.359,8.973 C12.627,8.973 12.870,8.865 13.046,8.689 C13.221,8.513 13.330,8.270 13.330,8.002 C13.329,7.465 12.894,7.030 12.358,7.029 L8.969,7.027 Z" class="cls-2"/>
  </g>
</svg>
