<svg xmlns="http://www.w3.org/2000/svg" xmlns:xlink="http://www.w3.org/1999/xlink" preserveAspectRatio="xMidYMid" width="41" height="41" viewBox="0 0 41 41">
  <defs>
    <style>
      .cls-1 {
        fill: #bcbcbc;
        fill-rule: evenodd;
      }

      .cls-2 {
        stroke: #841eb6;
        stroke-width: 1px;
        fill: none;
      }
    </style>
  </defs>
  <g>
    <path d="M25.567,27.000 L13.433,27.000 C13.194,27.000 13.000,26.816 13.000,26.590 C13.000,25.163 13.585,23.815 14.648,22.794 C15.715,21.768 17.131,21.203 18.633,21.203 L20.367,21.203 C21.869,21.203 23.285,21.768 24.352,22.794 C25.415,23.815 26.000,25.163 26.000,26.590 C26.000,26.816 25.806,27.000 25.567,27.000 ZM19.500,20.383 C17.349,20.383 15.600,18.727 15.600,16.691 C15.600,14.656 17.349,13.000 19.500,13.000 C21.650,13.000 23.400,14.656 23.400,16.691 C23.400,18.727 21.650,20.383 19.500,20.383 Z" class="cls-1"/>
    <circle cx="20.5" cy="20.5" r="20" class="cls-2"/>
  </g>
</svg>
