<svg xmlns="http://www.w3.org/2000/svg" xmlns:xlink="http://www.w3.org/1999/xlink" preserveAspectRatio="xMidYMid" width="14" height="12" viewBox="0 0 14 12">
  <defs>
    <style>
      .cls-1 {
        fill: #fff;
        fill-rule: evenodd;
      }
    </style>
  </defs>
  <path d="M13.747,1.658 L12.518,0.285 C12.350,0.096 12.146,0.002 11.905,0.002 C11.664,0.002 11.459,0.096 11.290,0.285 L5.365,6.920 L2.710,3.940 C2.541,3.752 2.336,3.658 2.095,3.658 C1.854,3.658 1.650,3.752 1.481,3.940 L0.253,5.314 C0.084,5.502 -0.000,5.731 -0.000,6.000 C-0.000,6.270 0.084,6.499 0.253,6.687 L3.522,10.343 L4.751,11.716 C4.919,11.905 5.124,11.999 5.365,11.999 C5.606,11.999 5.810,11.905 5.979,11.716 L7.208,10.343 L13.747,3.032 C13.916,2.843 14.000,2.614 14.000,2.345 C14.000,2.076 13.916,1.847 13.747,1.658 L13.747,1.658 Z" class="cls-1"/>
</svg>
