<svg xmlns="http://www.w3.org/2000/svg" xmlns:xlink="http://www.w3.org/1999/xlink" preserveAspectRatio="xMidYMid" width="18" height="20" viewBox="0 0 18 20">
  <defs>
    <style>
      .cls-1 {
        fill: #841eb6;
        fill-rule: evenodd;
      }
    </style>
  </defs>
  <path d="M15.955,16.667 L6.136,16.667 C5.008,16.667 4.091,15.732 4.091,14.583 L4.091,2.083 C4.091,0.935 5.008,-0.000 6.136,-0.000 L13.507,-0.000 C14.261,-0.000 14.998,0.312 15.531,0.854 L17.161,2.514 C17.702,3.066 18.000,3.798 18.000,4.577 L18.000,14.583 C18.000,15.732 17.083,16.667 15.955,16.667 ZM17.182,4.577 C17.182,4.022 16.969,3.498 16.583,3.104 L14.953,1.444 C14.573,1.056 14.045,0.833 13.507,0.833 L6.136,0.833 C5.460,0.833 4.909,1.394 4.909,2.083 L4.909,14.583 C4.909,15.272 5.460,15.833 6.136,15.833 L15.955,15.833 C16.631,15.833 17.182,15.272 17.182,14.583 L17.182,4.577 ZM14.318,13.333 L7.773,13.333 C7.547,13.333 7.364,13.147 7.364,12.917 C7.364,12.687 7.547,12.500 7.773,12.500 L14.318,12.500 C14.544,12.500 14.727,12.687 14.727,12.917 C14.727,13.147 14.544,13.333 14.318,13.333 ZM14.318,10.000 L7.773,10.000 C7.547,10.000 7.364,9.813 7.364,9.583 C7.364,9.353 7.547,9.167 7.773,9.167 L14.318,9.167 C14.544,9.167 14.727,9.353 14.727,9.583 C14.727,9.813 14.544,10.000 14.318,10.000 ZM14.318,6.667 L7.773,6.667 C7.547,6.667 7.364,6.480 7.364,6.250 C7.364,6.020 7.547,5.833 7.773,5.833 L14.318,5.833 C14.544,5.833 14.727,6.020 14.727,6.250 C14.727,6.480 14.544,6.667 14.318,6.667 ZM2.864,3.333 L2.045,3.333 C1.369,3.333 0.818,3.894 0.818,4.583 L0.818,17.917 C0.818,18.606 1.369,19.167 2.045,19.167 L11.864,19.167 C12.540,19.167 13.091,18.606 13.091,17.917 C13.091,17.687 13.274,17.500 13.500,17.500 C13.726,17.500 13.909,17.687 13.909,17.917 C13.909,19.065 12.992,20.000 11.864,20.000 L2.045,20.000 C0.917,20.000 -0.000,19.065 -0.000,17.917 L-0.000,4.583 C-0.000,3.435 0.917,2.500 2.045,2.500 L2.864,2.500 C3.089,2.500 3.273,2.687 3.273,2.917 C3.273,3.147 3.089,3.333 2.864,3.333 Z" class="cls-1"/>
</svg>
