<svg xmlns="http://www.w3.org/2000/svg" xmlns:xlink="http://www.w3.org/1999/xlink" preserveAspectRatio="xMidYMid" width="30.03" height="30.031" viewBox="0 0 30.03 30.031">
  <defs>
    <style>
      .cls-1 {
        fill: #eaedf3;
        fill-rule: evenodd;
      }
    </style>
  </defs>
  <path d="M17.183,15.019 L29.513,2.744 C30.104,2.159 30.104,1.210 29.513,0.626 C28.923,0.041 27.965,0.041 27.376,0.626 L15.057,12.890 L2.624,0.443 C2.035,-0.148 1.077,-0.148 0.487,0.443 C-0.102,1.037 -0.102,1.997 0.487,2.589 L12.911,15.026 L0.442,27.439 C-0.147,28.025 -0.147,28.973 0.442,29.557 C1.032,30.143 1.990,30.143 2.579,29.557 L15.037,17.155 L27.421,29.553 C28.010,30.144 28.968,30.144 29.558,29.553 C30.147,28.959 30.147,27.999 29.558,27.407 L17.183,15.019 Z" class="cls-1"/>
</svg>
