<svg xmlns="http://www.w3.org/2000/svg" xmlns:xlink="http://www.w3.org/1999/xlink" preserveAspectRatio="xMidYMid" width="18" height="20.031" viewBox="0 0 18 20.031">
  <defs>
    <style>
      .cls-1 {
        fill: #bcbcbc;
        fill-rule: evenodd;
      }
    </style>
  </defs>
  <path d="M17.182,8.732 C16.730,8.732 16.364,8.347 16.364,7.871 C16.364,5.455 15.470,3.185 13.848,1.476 C13.528,1.139 13.528,0.595 13.848,0.258 C14.168,-0.079 14.685,-0.079 15.005,0.258 C16.937,2.292 18.000,4.995 18.000,7.871 C18.000,8.347 17.633,8.732 17.182,8.732 ZM14.727,9.513 C14.727,11.217 15.437,12.826 16.674,13.927 C16.999,14.221 17.182,14.637 17.182,15.078 C17.182,15.910 16.540,16.586 15.750,16.586 L2.250,16.586 C1.460,16.586 0.818,15.910 0.818,15.078 C0.818,14.637 1.000,14.221 1.319,13.934 C2.563,12.826 3.273,11.217 3.273,9.513 L3.273,7.111 C3.273,4.081 5.411,1.572 8.182,1.151 C8.411,1.103 8.699,1.063 9.032,1.066 C9.337,1.068 9.603,1.106 9.818,1.151 C12.589,1.572 14.727,4.081 14.727,7.111 L14.727,9.513 ZM1.636,7.871 C1.636,8.347 1.270,8.732 0.818,8.732 C0.366,8.732 -0.000,8.347 -0.000,7.871 C-0.000,4.995 1.064,2.292 2.995,0.258 C3.315,-0.079 3.832,-0.079 4.152,0.258 C4.472,0.595 4.472,1.139 4.152,1.476 C2.530,3.184 1.636,5.455 1.636,7.871 ZM9.000,20.031 C7.518,20.031 6.279,18.919 5.994,17.447 L12.006,17.447 C11.721,18.919 10.482,20.031 9.000,20.031 Z" class="cls-1"/>
</svg>
