<svg xmlns="http://www.w3.org/2000/svg" xmlns:xlink="http://www.w3.org/1999/xlink" preserveAspectRatio="xMidYMid" width="18" height="20.03" viewBox="0 0 18 20.03">
  <defs>
    <style>
      .cls-1 {
        fill: #000;
        fill-rule: evenodd;
      }
    </style>
  </defs>
  <path d="M17.182,8.731 C16.730,8.731 16.364,8.346 16.364,7.870 C16.364,5.454 15.470,3.184 13.848,1.475 C13.528,1.138 13.528,0.594 13.848,0.257 C14.168,-0.080 14.685,-0.080 15.005,0.257 C16.937,2.291 18.000,4.994 18.000,7.870 C18.000,8.346 17.633,8.731 17.182,8.731 ZM14.727,9.512 C14.727,11.216 15.437,12.825 16.674,13.926 C16.999,14.220 17.182,14.636 17.182,15.077 C17.182,15.909 16.540,16.585 15.750,16.585 L2.250,16.585 C1.460,16.585 0.818,15.909 0.818,15.077 C0.818,14.636 1.000,14.220 1.319,13.933 C2.563,12.825 3.273,11.216 3.273,9.512 L3.273,7.110 C3.273,4.080 5.411,1.571 8.182,1.150 C8.411,1.102 8.699,1.062 9.032,1.065 C9.337,1.067 9.603,1.105 9.818,1.150 C12.589,1.571 14.727,4.080 14.727,7.110 L14.727,9.512 ZM1.636,7.870 C1.636,8.346 1.270,8.731 0.818,8.731 C0.366,8.731 -0.000,8.346 -0.000,7.870 C-0.000,4.994 1.064,2.291 2.995,0.257 C3.315,-0.080 3.832,-0.080 4.152,0.257 C4.472,0.594 4.472,1.138 4.152,1.475 C2.530,3.183 1.636,5.454 1.636,7.870 ZM9.000,20.030 C7.518,20.030 6.279,18.918 5.994,17.446 L12.006,17.446 C11.721,18.918 10.482,20.030 9.000,20.030 Z" class="cls-1"/>
</svg>
