<svg xmlns="http://www.w3.org/2000/svg" xmlns:xlink="http://www.w3.org/1999/xlink" preserveAspectRatio="xMidYMid" width="15" height="15" viewBox="0 0 15 15">
  <defs>
    <style>
      .cls-1 {
        fill: #bcbcbc;
        fill-rule: evenodd;
      }
    </style>
  </defs>
  <path d="M14.821,14.821 C14.702,14.940 14.546,15.000 14.390,15.000 C14.234,15.000 14.078,14.940 13.959,14.821 L10.823,11.686 C9.678,12.638 8.208,13.211 6.606,13.211 C2.963,13.211 -0.000,10.248 -0.000,6.606 C-0.000,2.963 2.963,-0.000 6.606,-0.000 C10.248,-0.000 13.211,2.963 13.211,6.606 C13.211,8.208 12.638,9.678 11.686,10.823 L14.821,13.959 C15.059,14.197 15.059,14.583 14.821,14.821 ZM6.606,1.219 C3.636,1.219 1.219,3.636 1.219,6.606 C1.219,9.576 3.636,11.992 6.606,11.992 C9.576,11.992 11.992,9.576 11.992,6.606 C11.992,3.636 9.576,1.219 6.606,1.219 Z" class="cls-1"/>
</svg>
