<svg xmlns="http://www.w3.org/2000/svg" xmlns:xlink="http://www.w3.org/1999/xlink" preserveAspectRatio="xMidYMid" width="122.94" height="126" viewBox="0 0 122.94 126">
  <defs>
    <style>
      .cls-1 {
        fill: #fff;
      }

      .cls-1, .cls-2, .cls-3 {
        fill-rule: evenodd;
      }

      .cls-2 {
        fill: #17a1c7;
      }

      .cls-3 {
        fill: #1477a0;
      }
    </style>
  </defs>
  <g>
    <path d="M117.647,0.004 L5.302,0.004 C3.320,-0.000 1.504,1.107 0.597,2.869 C-0.321,4.656 -0.159,6.807 1.013,8.438 L47.173,66.411 C47.187,66.431 47.202,66.450 47.216,66.470 C48.711,68.488 51.519,70.933 51.524,73.446 L51.524,120.711 C51.515,122.111 52.065,123.456 53.052,124.449 C54.039,125.443 55.380,126.000 56.779,126.000 C57.492,126.000 58.196,125.857 58.852,125.584 L67.981,116.766 C70.054,116.134 71.429,114.179 71.429,111.825 L71.429,73.446 C71.433,70.934 74.242,68.488 75.736,66.470 C75.750,66.450 75.765,66.431 75.779,66.411 L121.936,8.436 C123.110,6.805 123.271,4.656 122.352,2.869 C121.446,1.107 119.630,-0.000 117.647,0.004 L117.647,0.004 Z" class="cls-1"/>
    <path d="M19.940,32.000 L102.940,32.000 L85.940,54.000 L36.940,54.000 L19.940,32.000 Z" class="cls-2"/>
    <path d="M36.940,54.000 L85.940,54.000 L71.940,71.000 L50.940,71.000 L36.940,54.000 Z" class="cls-3"/>
  </g>
</svg>
