<svg xmlns="http://www.w3.org/2000/svg" xmlns:xlink="http://www.w3.org/1999/xlink" preserveAspectRatio="xMidYMid" width="21" height="16" viewBox="0 0 21 16">
  <defs>
    <style>
      .cls-1 {
        fill: #000;
        fill-rule: evenodd;
      }
    </style>
  </defs>
  <path d="M20.621,2.210 L18.778,0.379 C18.525,0.128 18.218,0.003 17.857,0.003 C17.496,0.003 17.188,0.128 16.935,0.379 L8.047,9.226 L4.065,5.254 C3.811,5.003 3.504,4.877 3.143,4.877 C2.782,4.877 2.475,5.003 2.222,5.254 L0.379,7.085 C0.126,7.337 -0.000,7.641 -0.000,8.001 C-0.000,8.360 0.126,8.665 0.379,8.916 L5.283,13.791 L7.127,15.622 C7.379,15.873 7.686,15.998 8.047,15.998 C8.409,15.998 8.716,15.873 8.969,15.622 L10.811,13.791 L20.621,4.042 C20.873,3.791 21.000,3.486 21.000,3.126 C21.000,2.767 20.873,2.462 20.621,2.210 L20.621,2.210 Z" class="cls-1"/>
</svg>
