<svg xmlns="http://www.w3.org/2000/svg" xmlns:xlink="http://www.w3.org/1999/xlink" preserveAspectRatio="xMidYMid" width="14" height="16" viewBox="0 0 14 16">
  <defs>
    <style>
      .cls-1 {
        fill: #000;
        fill-rule: evenodd;
      }
    </style>
  </defs>
  <path d="M13.533,16.000 L0.467,16.000 C0.209,16.000 -0.000,15.790 -0.000,15.531 C-0.000,13.901 0.630,12.361 1.774,11.194 C2.924,10.021 4.449,9.375 6.067,9.375 L7.933,9.375 C9.551,9.375 11.076,10.021 12.226,11.194 C13.370,12.361 14.000,13.901 14.000,15.531 C14.000,15.790 13.791,16.000 13.533,16.000 ZM7.000,8.437 C4.684,8.437 2.800,6.545 2.800,4.219 C2.800,1.892 4.684,-0.000 7.000,-0.000 C9.316,-0.000 11.200,1.892 11.200,4.219 C11.200,6.545 9.316,8.437 7.000,8.437 Z" class="cls-1"/>
</svg>
