<svg xmlns="http://www.w3.org/2000/svg" xmlns:xlink="http://www.w3.org/1999/xlink" preserveAspectRatio="xMidYMid" width="16" height="20" viewBox="0 0 16 20">
  <defs>
    <style>
      .cls-1 {
        fill: #000;
        fill-rule: evenodd;
      }
    </style>
  </defs>
  <path d="M8.000,16.000 C3.600,16.000 -0.000,12.400 -0.000,8.000 C-0.000,3.600 3.600,-0.000 8.000,-0.000 C12.400,-0.000 16.000,3.600 16.000,8.000 C16.000,12.400 12.400,16.000 8.000,16.000 ZM8.000,4.000 C5.800,4.000 4.000,5.800 4.000,8.000 C4.000,10.200 5.800,12.000 8.000,12.000 C10.200,12.000 12.000,10.200 12.000,8.000 C12.000,5.800 10.200,4.000 8.000,4.000 ZM8.000,10.000 C6.900,10.000 6.000,9.100 6.000,8.000 C6.000,7.800 6.000,7.600 6.100,7.500 C6.900,8.000 8.000,7.000 7.500,6.100 C7.600,6.000 7.800,6.000 8.000,6.000 C9.100,6.000 10.000,6.900 10.000,8.000 C10.000,9.100 9.100,10.000 8.000,10.000 ZM2.800,16.500 C4.300,17.500 6.100,18.000 8.100,18.000 C10.000,18.000 11.800,17.500 13.400,16.500 L15.100,19.300 C15.100,19.600 14.900,20.000 14.500,20.000 L1.500,20.000 C1.100,20.000 0.900,19.600 1.100,19.300 L2.800,16.500 Z" class="cls-1"/>
</svg>
