<svg xmlns="http://www.w3.org/2000/svg" xmlns:xlink="http://www.w3.org/1999/xlink" preserveAspectRatio="xMidYMid" width="30" height="26" viewBox="0 0 30 26">
  <defs>
    <style>
      .cls-1 {
        fill: #e6e6e6;
        fill-rule: evenodd;
      }
    </style>
  </defs>
  <path d="M26.250,26.000 L3.750,26.000 C1.682,26.000 -0.000,24.333 -0.000,22.285 L0.010,7.433 C0.012,5.389 1.691,3.724 3.754,3.720 L6.341,3.716 L8.215,-0.000 L21.783,-0.000 L23.659,3.714 L26.250,3.714 C28.318,3.714 30.000,5.380 30.000,7.428 L30.000,22.286 C30.000,24.334 28.318,26.000 26.250,26.000 ZM14.999,6.500 C10.864,6.500 7.499,9.832 7.499,13.929 C7.499,18.025 10.864,21.357 14.999,21.357 C19.135,21.357 22.500,18.025 22.500,13.929 C22.500,9.832 19.135,6.500 14.999,6.500 ZM12.348,16.555 C10.883,15.104 10.883,12.753 12.348,11.302 C13.812,9.852 16.187,9.852 17.651,11.302 C19.116,12.753 19.116,15.104 17.651,16.555 C16.187,18.005 13.812,18.005 12.348,16.555 Z" class="cls-1"/>
</svg>
