<svg xmlns="http://www.w3.org/2000/svg" xmlns:xlink="http://www.w3.org/1999/xlink" preserveAspectRatio="xMidYMid" width="13" height="10" viewBox="0 0 13 10">
  <defs>
    <style>
      .cls-1 {
        fill: #a503be;
        fill-rule: evenodd;
      }
    </style>
  </defs>
  <path d="M12.765,1.382 L11.624,0.237 C11.468,0.080 11.278,0.002 11.054,0.002 C10.831,0.002 10.640,0.080 10.484,0.237 L4.982,5.766 L2.516,3.284 C2.359,3.127 2.169,3.048 1.946,3.048 C1.722,3.048 1.532,3.127 1.375,3.284 L0.235,4.428 C0.078,4.585 -0.000,4.776 -0.000,5.000 C-0.000,5.225 0.078,5.416 0.235,5.573 L3.271,8.619 L4.412,9.764 C4.568,9.921 4.758,9.999 4.982,9.999 C5.205,9.999 5.395,9.921 5.552,9.764 L6.693,8.619 L12.765,2.526 C12.922,2.369 13.000,2.178 13.000,1.954 C13.000,1.730 12.922,1.539 12.765,1.382 L12.765,1.382 Z" class="cls-1"/>
</svg>
