<svg xmlns="http://www.w3.org/2000/svg" xmlns:xlink="http://www.w3.org/1999/xlink" preserveAspectRatio="xMidYMid" width="20" height="20" viewBox="0 0 20 20">
  <defs>
    <style>
      .cls-1 {
        fill: #e9e9e9;
      }

      .cls-2 {
        fill: #979797;
        fill-rule: evenodd;
      }
    </style>
  </defs>
  <g>
    <circle cx="10" cy="10" r="10" class="cls-1"/>
    <path d="M10.952,11.315 C11.004,11.150 11.099,10.977 11.238,10.795 C11.377,10.613 11.485,10.477 11.563,10.385 C11.641,10.294 11.793,10.143 12.018,9.931 C12.243,9.718 12.378,9.590 12.421,9.547 C12.984,8.984 13.266,8.364 13.266,7.688 C13.266,6.908 12.989,6.306 12.434,5.881 C11.879,5.448 11.221,5.231 10.458,5.231 C9.782,5.231 9.186,5.393 8.671,5.719 C8.155,6.043 7.793,6.501 7.585,7.090 L8.612,7.662 C8.881,6.821 9.492,6.401 10.445,6.401 C10.930,6.401 11.320,6.518 11.615,6.752 C11.910,6.986 12.057,7.315 12.057,7.740 C12.057,7.948 11.998,8.165 11.882,8.390 C11.765,8.615 11.661,8.782 11.569,8.891 C11.478,8.999 11.292,9.185 11.010,9.450 C10.729,9.714 10.562,9.872 10.510,9.924 C9.947,10.487 9.665,11.124 9.665,11.835 L10.874,11.835 C10.874,11.653 10.900,11.480 10.952,11.315 ZM10.868,14.396 C11.028,14.231 11.108,14.032 11.108,13.798 C11.108,13.564 11.028,13.365 10.868,13.200 C10.707,13.035 10.506,12.953 10.263,12.953 C10.029,12.953 9.830,13.035 9.665,13.200 C9.500,13.365 9.418,13.564 9.418,13.798 C9.418,14.032 9.500,14.231 9.665,14.396 C9.830,14.561 10.029,14.643 10.263,14.643 C10.506,14.643 10.707,14.561 10.868,14.396 Z" class="cls-2"/>
  </g>
</svg>
