<svg xmlns="http://www.w3.org/2000/svg" xmlns:xlink="http://www.w3.org/1999/xlink" preserveAspectRatio="xMidYMid" width="22" height="15" viewBox="0 0 22 15">
  <defs>
    <style>
      .cls-1 {
        fill: #bcbcbc;
        fill-rule: evenodd;
      }
    </style>
  </defs>
  <path d="M21.882,5.130 C21.881,5.131 21.880,5.132 21.879,5.133 C21.714,5.280 21.446,5.280 21.280,5.133 L16.920,1.270 L16.920,14.625 C16.919,14.833 16.730,15.001 16.496,15.000 C16.262,15.000 16.073,14.832 16.073,14.625 L16.073,1.270 L11.713,5.133 C11.547,5.280 11.279,5.280 11.114,5.133 C10.949,4.987 10.948,4.751 11.111,4.604 C11.112,4.603 11.113,4.603 11.114,4.602 L16.196,0.099 C16.318,-0.009 16.500,-0.041 16.659,0.017 L16.659,0.018 C16.710,0.036 16.757,0.064 16.796,0.099 L21.879,4.602 C22.044,4.747 22.045,4.983 21.882,5.130 ZM10.825,10.398 L5.756,14.901 C5.635,15.009 5.454,15.041 5.295,14.983 L5.295,14.982 C5.244,14.964 5.198,14.936 5.158,14.901 L0.090,10.398 C-0.074,10.253 -0.076,10.017 0.086,9.870 C0.088,9.869 0.088,9.868 0.090,9.867 C0.255,9.720 0.522,9.720 0.687,9.867 L5.034,13.730 L5.034,0.375 C5.035,0.167 5.224,-0.001 5.457,-0.000 C5.691,-0.000 5.879,0.168 5.879,0.375 L5.879,13.730 L10.227,9.867 C10.392,9.720 10.659,9.720 10.825,9.867 C10.989,10.013 10.990,10.249 10.827,10.396 C10.826,10.397 10.825,10.397 10.825,10.398 Z" class="cls-1"/>
</svg>
